<svg xmlns="http://www.w3.org/2000/svg" viewBox="0 0 800 600">
  <!-- Background -->
  <rect width="800" height="600" fill="#f5f5f5"/>
  
  <!-- Header -->
  <rect width="800" height="70" fill="#ffffff"/>
  <rect x="20" y="20" width="30" height="30" fill="#0073b1"/>
  <text x="60" y="40" font-family="Arial" font-size="20" font-weight="bold" fill="#0073b1">JewelConnect</text>
  
  <!-- Navigation -->
  <text x="250" y="40" font-family="Arial" font-size="14" fill="#0073b1" font-weight="bold">Dashboard</text>
  <text x="350" y="40" font-family="Arial" font-size="14" fill="#555555">Jobs</text>
  <text x="410" y="40" font-family="Arial" font-size="14" fill="#555555">Post a Job</text>
  <text x="500" y="40" font-family="Arial" font-size="14" fill="#555555">Messages</text>
  <text x="590" y="40" font-family="Arial" font-size="14" fill="#555555">Profile</text>
  
  <!-- Avatar -->
  <circle cx="750" cy="35" r="20" fill="#dddddd"/>
  
  <!-- Dashboard Tabs -->
  <rect x="100" y="100" width="600" height="50" rx="4" fill="#ffffff"/>
  <rect x="100" y="100" width="150" height="50" fill="#0073b1"/>
  <text x="145" y="130" font-family="Arial" font-size="14" font-weight="bold" fill="#ffffff">Worker View</text>
  <text x="295" y="130" font-family="Arial" font-size="14" fill="#555555">Jeweler View</text>
  
  <!-- Stats Section -->
  <rect x="100" y="170" width="290" height="120" rx="4" fill="#ffffff"/>
  <text x="120" y="200" font-family="Arial" font-size="18" font-weight="bold" fill="#333333">Profile Views</text>
  <text x="120" y="240" font-family="Arial" font-size="32" font-weight="bold" fill="#0073b1">127</text>
  <text x="120" y="270" font-family="Arial" font-size="14" fill="#777777">Last 30 days</text>
  
  <rect x="410" y="170" width="290" height="120" rx="4" fill="#ffffff"/>
  <text x="430" y="200" font-family="Arial" font-size="18" font-weight="bold" fill="#333333">Applications Sent</text>
  <text x="430" y="240" font-family="Arial" font-size="32" font-weight="bold" fill="#0073b1">12</text>
  <text x="430" y="270" font-family="Arial" font-size="14" fill="#777777">Last 30 days</text>
  
  <!-- Applied Jobs Section -->
  <rect x="100" y="310" width="600" height="270" rx="4" fill="#ffffff"/>
  <text x="120" y="340" font-family="Arial" font-size="18" font-weight="bold" fill="#333333">Your Job Applications</text>
  
  <!-- Job Applications -->
  <rect x="120" y="360" width="560" height="60" rx="4" fill="#f9f9f9"/>
  <text x="140" y="385" font-family="Arial" font-size="16" font-weight="bold" fill="#333333">Master Jeweler - Elegant Designs</text>
  <text x="140" y="405" font-family="Arial" font-size="14" fill="#777777">Applied 3 days ago</text>
  <rect x="500" y="375" width="160" height="30" rx="15" fill="#e1f2f9"/>
  <text x="550" y="395" font-family="Arial" font-size="14" fill="#0073b1">In Review</text>
  
  <rect x="120" y="430" width="560" height="60" rx="4" fill="#f9f9f9"/>
  <text x="140" y="455" font-family="Arial" font-size="16" font-weight="bold" fill="#333333">Jewelry CAD Designer - Diamond Studios</text>
  <text x="140" y="475" font-family="Arial" font-size="14" fill="#777777">Applied 1 week ago</text>
  <rect x="500" y="445" width="160" height="30" rx="15" fill="#e5f7e8"/>
  <text x="530" y="465" font-family="Arial" font-size="14" fill="#2e8540">Interview Scheduled</text>
  
  <rect x="120" y="500" width="560" height="60" rx="4" fill="#f9f9f9"/>
  <text x="140" y="525" font-family="Arial" font-size="16" font-weight="bold" fill="#333333">Apprentice Goldsmith - Golden Touch</text>
  <text x="140" y="545" font-family="Arial" font-size="14" fill="#777777">Applied 5 days ago</text>
  <rect x="500" y="515" width="160" height="30" rx="15" fill="#f9f9f9"/>
  <text x="550" y="535" font-family="Arial" font-size="14" fill="#777777">Pending</text>
</svg>
