<svg xmlns="http://www.w3.org/2000/svg" viewBox="0 0 800 600">
  <!-- Background -->
  <rect width="800" height="600" fill="#f5f5f5"/>
  
  <!-- Header -->
  <rect width="800" height="70" fill="#ffffff"/>
  <rect x="20" y="20" width="30" height="30" fill="#0073b1"/>
  <text x="60" y="40" font-family="Arial" font-size="20" font-weight="bold" fill="#0073b1">JewelConnect</text>
  
  <!-- Navigation -->
  <text x="250" y="40" font-family="Arial" font-size="14" fill="#555555">Dashboard</text>
  <text x="350" y="40" font-family="Arial" font-size="14" fill="#0073b1" font-weight="bold">Jobs</text>
  <text x="410" y="40" font-family="Arial" font-size="14" fill="#555555">Post a Job</text>
  <text x="500" y="40" font-family="Arial" font-size="14" fill="#555555">Messages</text>
  <text x="590" y="40" font-family="Arial" font-size="14" fill="#555555">Profile</text>
  
  <!-- Avatar -->
  <circle cx="750" cy="35" r="20" fill="#dddddd"/>
  
  <!-- Job Details -->
  <rect x="100" y="100" width="600" height="100" rx="4" fill="#ffffff"/>
  <text x="120" y="130" font-family="Arial" font-size="24" font-weight="bold" fill="#333333">Apply for: Master Jeweler Needed</text>
  <text x="120" y="160" font-family="Arial" font-size="16" fill="#555555">Elegant Designs • New York, NY</text>
  <text x="120" y="180" font-family="Arial" font-size="14" fill="#777777">Posted 2 days ago</text>
  
  <!-- Application Form -->
  <rect x="100" y="220" width="600" height="360" rx="4" fill="#ffffff"/>
  <text x="120" y="250" font-family="Arial" font-size="18" font-weight="bold" fill="#333333">Application Form</text>
  
  <!-- Form Fields -->
  <text x="120" y="290" font-family="Arial" font-size="14" font-weight="bold" fill="#555555">Full Name*</text>
  <rect x="120" y="300" width="560" height="40" rx="4" fill="#ffffff" stroke="#cccccc"/>
  
  <text x="120" y="360" font-family="Arial" font-size="14" font-weight="bold" fill="#555555">Years of Experience*</text>
  <rect x="120" y="370" width="560" height="40" rx="4" fill="#ffffff" stroke="#cccccc"/>
  
  <text x="120" y="430" font-family="Arial" font-size="14" font-weight="bold" fill="#555555">Email Address*</text>
  <rect x="120" y="440" width="560" height="40" rx="4" fill="#ffffff" stroke="#cccccc"/>
  
  <text x="120" y="500" font-family="Arial" font-size="14" font-weight="bold" fill="#555555">Phone Number*</text>
  <rect x="120" y="510" width="560" height="40" rx="4" fill="#ffffff" stroke="#cccccc"/>
  
  <!-- Submit Button -->
  <rect x="120" y="570" width="200" height="40" rx="4" fill="#0073b1"/>
  <text x="175" y="595" font-family="Arial" font-size="16" font-weight="bold" fill="#ffffff">Submit Application</text>
</svg>
