<svg xmlns="http://www.w3.org/2000/svg" viewBox="0 0 800 600">
  <!-- Background -->
  <rect width="800" height="600" fill="#f5f5f5"/>
  
  <!-- Header -->
  <rect width="800" height="70" fill="#ffffff"/>
  <rect x="20" y="20" width="30" height="30" fill="#0073b1"/>
  <text x="60" y="40" font-family="Arial" font-size="20" font-weight="bold" fill="#0073b1">JewelConnect</text>
  
  <!-- Navigation -->
  <text x="250" y="40" font-family="Arial" font-size="14" fill="#555555">Dashboard</text>
  <text x="350" y="40" font-family="Arial" font-size="14" fill="#0073b1" font-weight="bold">Jobs</text>
  <text x="410" y="40" font-family="Arial" font-size="14" fill="#555555">Post a Job</text>
  <text x="500" y="40" font-family="Arial" font-size="14" fill="#555555">Messages</text>
  <text x="590" y="40" font-family="Arial" font-size="14" fill="#555555">Profile</text>
  
  <!-- Avatar -->
  <circle cx="750" cy="35" r="20" fill="#dddddd"/>
  
  <!-- Search Bar -->
  <rect x="100" y="100" width="600" height="50" rx="4" fill="#ffffff"/>
  <text x="130" y="130" font-family="Arial" font-size="14" fill="#999999">Search for jewelry jobs...</text>
  <rect x="650" y="100" width="50" height="50" fill="#0073b1"/>
  <text x="670" y="130" font-family="Arial" font-size="16" fill="#ffffff">🔍</text>
  
  <!-- Job Cards -->
  <!-- Job Card 1 -->
  <rect x="100" y="170" width="600" height="120" rx="4" fill="#ffffff"/>
  <text x="120" y="200" font-family="Arial" font-size="18" font-weight="bold" fill="#333333">Master Jeweler Needed</text>
  <text x="120" y="225" font-family="Arial" font-size="14" fill="#555555">Elegant Designs • New York, NY</text>
  <text x="120" y="250" font-family="Arial" font-size="14" fill="#777777">Posted 2 days ago</text>
  <rect x="520" y="220" width="160" height="40" rx="4" fill="#0073b1"/>
  <text x="570" y="245" font-family="Arial" font-size="14" font-weight="bold" fill="#ffffff">Apply Now</text>
  
  <!-- Job Card 2 -->
  <rect x="100" y="310" width="600" height="120" rx="4" fill="#ffffff"/>
  <text x="120" y="340" font-family="Arial" font-size="18" font-weight="bold" fill="#333333">Jewelry CAD Designer</text>
  <text x="120" y="365" font-family="Arial" font-size="14" fill="#555555">Diamond Studios • Remote</text>
  <text x="120" y="390" font-family="Arial" font-size="14" fill="#777777">Posted 1 week ago</text>
  <rect x="520" y="360" width="160" height="40" rx="4" fill="#0073b1"/>
  <text x="570" y="385" font-family="Arial" font-size="14" font-weight="bold" fill="#ffffff">Apply Now</text>
  
  <!-- Job Card 3 -->
  <rect x="100" y="450" width="600" height="120" rx="4" fill="#ffffff"/>
  <text x="120" y="480" font-family="Arial" font-size="18" font-weight="bold" fill="#333333">Apprentice Goldsmith</text>
  <text x="120" y="505" font-family="Arial" font-size="14" fill="#555555">Golden Touch • Los Angeles, CA</text>
  <text x="120" y="530" font-family="Arial" font-size="14" fill="#777777">Posted 3 days ago</text>
  <rect x="520" y="500" width="160" height="40" rx="4" fill="#0073b1"/>
  <text x="570" y="525" font-family="Arial" font-size="14" font-weight="bold" fill="#ffffff">Apply Now</text>
</svg>
